<svg xmlns="http://www.w3.org/2000/svg" viewBox="0 0 100 100"><defs><style>.a{fill:#ccc;}.b{fill:gray;}</style></defs><title>rotate-disabled</title><circle class="a" cx="50" cy="50" r="50"/><path class="b" d="M64.83,59.82,69,63.91a23.25,23.25,0,0,0,4.77-11.45h-6a17.84,17.84,0,0,1-3,7.36M53.38,66.89v5.94a23.34,23.34,0,0,0,11.48-4.74l-4.24-4.24a17.15,17.15,0,0,1-7.24,3m20.4-20.32A23.29,23.29,0,0,0,69,35.12L64.83,39.3a17.07,17.07,0,0,1,3,7.27m-6.95-16L47.49,17.14v9a23.52,23.52,0,0,0,0,46.68V66.92a17.64,17.64,0,0,1,0-34.8V43.63Z"/></svg>