<svg xmlns="http://www.w3.org/2000/svg" viewBox="0 0 76.17 7.5"><defs><style>.a{fill:#fff;}</style></defs><title>numbers</title><path class="a" d="M1.74,1.2H4.25V2h.83V7.87H4.25V8.7H1.74V7.87H.91V2h.83ZM4.24,2H1.75V7.87H4.24Z" transform="translate(-0.91 -1.2)"/><path class="a" d="M11,1.2h.84V8.7H11V2.87h-.83V2H11Z" transform="translate(-0.91 -1.2)"/><path class="a" d="M17.74,3.7h-.83V2h.83Zm0,4.17h3.34V8.7H16.91V7h.83Zm0-6.67h2.51V2h.83v2.5h-.83V2H17.74ZM18.58,7h-.84V6.2h.84Zm.83-.83h-.83V5.37h.83Zm.84-.83h-.84V4.53h.84Z" transform="translate(-0.91 -1.2)"/><path class="a" d="M25.74,3.7h-.83V2h.83Zm2.51,5H25.74V7.87h-.83V6.2h.83V7.87h2.51ZM25.74,1.2h2.51V2h.83v2.5h-.83V2H25.74Zm2.51,4.17h.83v2.5h-.83V5.37H26.58V4.53h1.67Z" transform="translate(-0.91 -1.2)"/><path class="a" d="M35.41,3.7h-.83V2h.83V1.2h.84v5h.83V7h-.83V8.7h-.84V7h-2.5V5.37h.82V6.2h1.67Zm-1.67,0h.83V5.37h-.84Z" transform="translate(-0.91 -1.2)"/><path class="a" d="M40.91,1.2h4.17V2H41.74V3.7h2.51v.83h.83V7.87h-.83V4.53H41.74v.84h-.83Zm3.34,7.5H41.74V7.87h-.83V7h.83v.84h2.51Z" transform="translate(-0.91 -1.2)"/><path class="a" d="M49.74,3.7h2.51v.83h.83V7.87h-.83V8.7H49.74V7.87h-.83V2h.83Zm0-2.5h2.51V2h.83v.84h-.83V2H49.74Zm2.5,3.33h-2.5V7.87h2.49Z" transform="translate(-0.91 -1.2)"/><path class="a" d="M56.91,1.2h4.17V3.7h-.83V2H57.74v.84h-.83Zm2.5,7.5h-.83V5.37h.83Zm.84-3.33h-.84V3.7h.84Z" transform="translate(-0.91 -1.2)"/><path class="a" d="M68.25,5.37H65.74V4.53h-.83V2h.83V1.2h2.51V2h.83v2.5h-.83v.84h.83v2.5h-.83Zm0,3.33H65.74V7.87h-.83V5.37h.83v2.5h2.51Zm0-6.67H65.75v2.5h2.49Z" transform="translate(-0.91 -1.2)"/><path class="a" d="M73.74,1.2h2.51V2h.83V7.87h-.83V6.2H73.74V5.37h-.83V2h.83Zm2.51,7.5H73.74V7.87h-.83V7h.83v.84h2.51Zm0-6.67H73.75V5.37h2.5Z" transform="translate(-0.91 -1.2)"/></svg>